<svg width="180" height="220" viewBox="0 0 180 220" fill="none" xmlns="http://www.w3.org/2000/svg">
<path d="M178.529 13.733L90.2636 0.0209026C90.0832 -0.00696754 89.9029 -0.00696754 89.7364 0.0209026L1.47063 13.733C0.624326 13.8584 0 14.597 0 15.461V169.583H3.48235V16.952L90 3.51861L176.518 16.952V169.569H180V15.461C180 14.597 179.376 13.8584 178.529 13.733Z" fill="white"/>
<path d="M39.5267 217.506V206.581H42.2322C42.6206 205.633 42.7316 204.616 42.7316 203.278V182.208H24.9453V206.581H27.4426C26.8599 210.385 25.6112 214.008 23.9325 217.199H18.5633C18.6327 216.67 18.6743 216.126 18.6743 215.527V213.478C18.6743 213.046 19.0211 212.712 19.4373 212.712H23.211V210.859H19.4373C19.0072 210.859 18.6743 210.51 18.6743 210.092V207.291C18.6743 206.859 19.0211 206.525 19.4373 206.525H23.211V204.671H19.4373C19.0072 204.671 18.6743 204.323 18.6743 203.905V200.352H23.655V198.415H18.4384C19.6316 197.369 20.5472 196.143 21.3103 194.708H16.0105C15.4417 195.92 14.8035 197.202 14.082 198.415H10.7939C12.0703 196.84 13.1802 195.168 14.1098 193.398H23.766V191.308H15.1226C15.7885 189.789 16.3435 188.186 16.8152 186.514H23.1972V184.424H11.0436C11.5986 183.448 12.0425 182.431 12.3616 181.442H6.85371C6.09064 183.448 4.57839 185.65 2.92739 187.225V190.792C5.27208 190.346 7.29767 189.036 8.90704 187.294C9.1429 187.044 9.35101 186.779 9.55912 186.528H11.002C10.5303 188.186 9.90596 189.789 9.15677 191.322H2.09496V193.412H8.04686C6.35425 196.296 4.21767 198.958 1.72036 201.411V205.926C2.8164 205.368 3.85694 204.699 4.85587 203.989V219.275H22.7532C22.6006 219.512 22.4618 219.763 22.2954 220H26.7766C28.4692 218.551 29.6347 216.753 30.6058 214.468C31.6464 211.987 32.3401 209.298 32.7285 206.608H34.2269V219.763H39.6655C41.6772 219.763 42.8842 219.596 44.3132 218.997V216.962C42.6206 217.408 41.4413 217.52 39.6655 217.52H39.5129L39.5267 217.506ZM13.638 217.213H10.0447V212.726H12.875C13.3051 212.726 13.638 213.074 13.638 213.492V217.213ZM13.638 210.092C13.638 210.524 13.2912 210.859 12.875 210.859H10.0447V206.525H12.875C13.3051 206.525 13.638 206.873 13.638 207.291V210.092ZM13.638 203.891C13.638 204.323 13.2912 204.657 12.875 204.657H10.0447V200.338H13.638V203.891ZM37.4595 202.121C37.4595 203.027 37.3763 203.752 37.0849 204.421H30.259V199.752C30.259 199.306 30.6197 198.944 31.0637 198.944H36.6548C37.0988 198.944 37.4595 199.306 37.4595 199.752V202.121ZM37.4595 196.157C37.4595 196.603 37.0988 196.965 36.6548 196.965H31.0637C30.6197 196.965 30.259 196.603 30.259 196.157V192.492C30.259 192.046 30.6197 191.684 31.0637 191.684H36.6548C37.0988 191.684 37.4595 192.046 37.4595 192.492V196.157ZM37.4595 188.897C37.4595 189.343 37.0988 189.705 36.6548 189.705H31.0637C30.6197 189.705 30.259 189.343 30.259 188.897V184.382H37.4595V188.897Z" fill="white"/>
<path d="M126.419 202.163V199.711H121.258V202.163C121.258 202.595 120.911 202.943 120.481 202.943H118.802V205.145H120.425C120.869 205.145 121.23 205.521 121.216 205.967C120.994 211.374 119.871 216.015 118.122 219.777H122.354C123.478 218.453 124.366 216.823 125.018 214.816C125.809 212.21 126.253 209.145 126.391 205.898C126.405 205.48 126.752 205.145 127.168 205.145H128.417C128.375 211.095 128.125 215.792 126.766 219.777H131.622C132.385 218.69 132.856 217.311 133.12 215.541C133.564 212.21 133.717 207.89 133.717 202.943H127.238C126.807 202.943 126.461 202.595 126.461 202.163H126.419Z" fill="white"/>
<path d="M112.642 181.47C112.642 182.417 112.601 183.337 112.545 184.229C112.517 184.647 112.157 184.981 111.74 184.981H104.443V187.211H111.296C111.796 187.211 112.184 187.671 112.101 188.158C111.394 192.339 109.965 195.934 107.786 198.944H113.114C115.112 197.551 116.388 195.725 117.345 193.426C118.095 191.586 118.594 189.803 118.899 187.894C118.969 187.503 119.288 187.211 119.69 187.211H125.115C125.101 191.405 124.56 195.112 123.089 198.944H129.485C130.345 197.983 130.886 196.882 131.219 195.363C131.719 192.506 131.969 188.855 131.969 184.981H120.092C119.635 184.981 119.274 184.591 119.288 184.131C119.329 183.281 119.357 182.403 119.357 181.47H112.628H112.642Z" fill="white"/>
<path d="M110.908 202.163V199.724H105.747V202.163C105.747 202.609 105.386 202.957 104.956 202.957H103.277V205.159H104.887C105.345 205.159 105.705 205.549 105.691 205.995C105.469 211.472 104.318 216.098 102.639 219.791H106.843C107.981 218.467 108.855 216.837 109.479 214.844C110.256 212.224 110.714 209.159 110.839 205.926C110.852 205.494 111.199 205.159 111.616 205.159H112.809C112.767 211.095 112.462 215.806 111.047 219.791H115.889C116.652 218.704 117.11 217.324 117.387 215.555C117.859 212.238 118.025 207.904 118.025 202.957H111.685C111.241 202.957 110.894 202.595 110.894 202.163H110.908Z" fill="white"/>
<path d="M104.845 192.158H102.265C101.821 192.158 101.474 191.795 101.474 191.363V181.33H95.286V191.363C95.286 191.809 94.9252 192.158 94.4951 192.158H91.8869V194.499H94.4951C94.9391 194.499 95.286 194.861 95.286 195.293V219.902H100.614C101.293 217.129 101.474 214.092 101.474 210.064V195.293C101.474 194.847 101.834 194.499 102.265 194.499H104.845V192.158Z" fill="white"/>
<path d="M170.039 196.004H145.94V198.192H170.039V196.004Z" fill="white"/>
<path d="M137.615 205.243H146.342C146.966 205.243 147.355 205.926 147.022 206.469C144.455 210.58 141.805 214.719 139.086 218.843H176.074C175.546 217.157 174.45 215.109 172.897 213.005C171.634 211.263 170.33 209.563 169.053 207.863H161.853C162.755 209.326 163.67 210.845 164.558 212.322C165.446 213.896 166.084 215.346 166.404 216.628H148.201C150.754 213.005 153.265 209.354 155.79 205.605C155.943 205.382 156.178 205.257 156.442 205.257H178.404V203.041H137.629V205.257L137.615 205.243Z" fill="white"/>
<path d="M154.028 181.428C150.074 185.525 143.206 190.318 136.838 193.286V197.467C140.348 196.868 144.219 195.405 147.965 193.426C151.753 191.405 155.235 188.981 157.982 186.305C160.757 188.981 164.253 191.405 168.013 193.426C171.745 195.405 175.63 196.868 179.126 197.467V193.286C172.772 190.318 165.918 185.525 161.936 181.428H154.028Z" fill="white"/>
<path d="M47.1713 91.9506C48.1008 89.9997 48.1979 87.7561 47.7817 85.0249C47.3239 82.2796 46.7551 79.8271 45.992 76.845H35.7669C36.0444 82.0567 36.0721 86.7946 35.7669 91.9506H47.1713Z" fill="white"/>
<path d="M25.6806 91.9506C27.5119 90.1808 28.5664 87.9512 29.1074 85.1363C29.5653 82.3633 29.9676 79.8131 30.1619 76.845H19.6454C18.2858 81.9173 16.3157 87.0036 14.0126 91.9506H25.6945H25.6806Z" fill="white"/>
<path d="M85.5049 91.9506C86.0182 89.9857 85.602 87.6865 84.5198 85.0109C83.3683 82.2657 82.0364 79.8271 80.4548 76.845H70.2158C71.7558 82.0428 73.171 86.7249 74.1699 91.9367H85.5049V91.9506Z" fill="white"/>
<path d="M43.5363 70.1004H14.637V73.6956H86.7396V70.1004H57.6044C57.1189 70.1004 56.7304 69.6684 56.8136 69.1946C56.9662 68.3167 57.0079 67.3691 57.0079 66.3658V64.9165C57.0079 64.4706 57.3686 64.1083 57.8125 64.1083H83.0076V60.6106H57.8125C57.3686 60.6106 57.0079 60.2483 57.0079 59.8024V55.2456C57.0079 54.7997 57.3686 54.4374 57.8125 54.4374H81.6202C82.6052 52.2635 82.8827 49.8806 82.8827 46.787V26.0377H18.4939V54.4374H43.5363C43.9803 54.4374 44.341 54.7997 44.341 55.2456V59.8024C44.341 60.2483 43.9803 60.6106 43.5363 60.6106H18.369V64.1083H43.5363C43.9803 64.1083 44.341 64.4706 44.341 64.9165V69.2922C44.341 69.7381 43.9803 70.1004 43.5363 70.1004ZM70.521 29.4657V38.6211H57.7987C57.3547 38.6211 56.994 38.2587 56.994 37.8128V29.4657H70.521ZM57.0079 42.5368C57.0079 42.0909 57.3686 41.7286 57.8125 41.7286H70.5349V46.146C70.5349 48.1248 70.3684 49.6576 69.7164 51.0233H57.8264C57.3825 51.0233 57.0217 50.661 57.0217 50.215V42.5229L57.0079 42.5368ZM44.341 29.4657V37.8128C44.341 38.2587 43.9803 38.6211 43.5363 38.6211H30.8139V29.4657H44.341ZM43.5363 51.0372H30.8139V41.7425H43.5363C43.9803 41.7425 44.341 42.1048 44.341 42.5508V50.2429C44.341 50.6888 43.9803 51.0512 43.5363 51.0512V51.0372Z" fill="white"/>
<path d="M66.2617 85.0388C65.4293 82.2936 64.4443 79.841 63.2789 76.845H53.0677C54.0388 82.0567 54.788 86.7946 55.1626 91.9506H66.4699C67.1636 89.9997 67.0109 87.7561 66.2617 85.0388Z" fill="white"/>
<path d="M161.728 84.3838C161.895 81.7083 161.964 78.7541 161.964 75.4097V25.2713H149.242V75.4236C149.242 81.8755 149.047 87.1151 147.299 92.1875H159.161C160.66 90.0554 161.395 87.6168 161.728 84.3978V84.3838Z" fill="white"/>
<path d="M136.186 26.8459H123.589V87.8955H134.396C135.798 82.1542 136.186 75.9531 136.186 67.6339V26.8459Z" fill="white"/>
<path d="M108.022 76.9425C110.076 67.9962 110.533 58.2416 110.533 46.355V25.6336H97.811V46.355C97.811 64.3173 96.6872 77.9458 91.8591 91.4489H100.863C104.207 87.4635 106.565 83.0321 108.022 76.9425Z" fill="white"/>
<path d="M24.1406 136.905C21.019 146.883 17.2453 158.491 13.4438 168.203H24.3071C26.7905 164.106 28.4692 159.09 30.0647 152.652C31.3966 147.273 32.6037 141.88 33.672 136.905H24.1406Z" fill="white"/>
<path d="M42.2599 103.238H36.5577V131.638H81.3149C82.1612 129.743 82.4248 127.597 82.4248 124.949V103.252H42.2738L42.2599 103.238ZM71.1592 123.834C71.1592 125.548 71.0066 126.858 70.4517 128.07H47.7262V119.779C47.7262 119.347 48.0731 119.013 48.4893 119.013H70.3962C70.8124 119.013 71.1592 119.361 71.1592 119.779V123.834ZM71.1592 114.943C71.1592 115.375 70.8124 115.71 70.3962 115.71H48.4893C48.0592 115.71 47.7262 115.362 47.7262 114.943V106.819H71.1592V114.943Z" fill="white"/>
<path d="M19.8674 133.784H29.9676C29.1491 129.45 26.6795 124.684 22.3925 118.943H12.8334C15.3029 123.695 17.6892 128.697 19.8813 133.784H19.8674Z" fill="white"/>
<path d="M16.3296 101.217C18.7714 105.941 21.2271 111 23.3775 116.086H33.4639C32.6592 111.766 30.1341 106.917 25.8887 101.217H16.3296Z" fill="white"/>
<path d="M87.5304 162.964H82.8133C83.3267 160.804 83.4931 158.421 83.4931 155.536V135.553H35.5449V162.964H31.5076V166.796H87.5166V162.964H87.5304ZM49.1552 162.964H44.674C45.1873 160.818 45.3538 158.435 45.3538 155.536V139.246H49.1414V162.964H49.1552ZM61.3365 162.964H57.0911C57.4796 161.11 57.6044 159.062 57.6044 156.568V139.246H61.3365V162.964ZM69.2585 162.964C69.647 161.11 69.7857 159.062 69.7857 156.568V139.246H73.6565V162.964H69.2585Z" fill="white"/>
<path d="M165.779 159.787C159.772 157.975 154.264 155.383 149.533 152.164C149.103 151.871 149.089 151.244 149.505 150.924C155.041 146.618 160.479 141.615 164.683 136.64H151.031C148.368 139.609 145.496 142.479 142.513 145.155C142.194 145.433 141.708 145.406 141.417 145.099C138.878 142.27 136.838 139.149 135.395 135.804V134.355H158.371C159.328 132.334 159.591 130.007 159.591 127.109V106.387H133.453C132.662 106.387 132.371 105.342 133.037 104.91C135.118 103.6 136.769 102.179 138.392 100.465H123.464C121.841 102.513 120.079 104.395 118.136 106.387H98.1162V134.355H122.257V155.007C122.257 159.814 121.66 164.162 119.385 168.58H132.357C133.897 166.726 134.743 164.58 135.118 162.086C135.34 159.856 135.382 157.557 135.382 155.007V151.871C139.1 155.954 143.65 159.424 149.089 162.142C154.458 164.831 160.105 166.489 165.779 166.907V159.787ZM110.27 109.927H147.452V117.856C147.452 118.288 147.105 118.622 146.689 118.622H111.047C110.617 118.622 110.284 118.274 110.284 117.856V109.927H110.27ZM110.27 130.746V122.719C110.27 122.287 110.617 121.953 111.033 121.953H146.675C147.105 121.953 147.438 122.301 147.438 122.719V126.147C147.438 128.028 147.285 129.478 146.689 130.746H110.27Z" fill="white"/>
<path d="M92.8025 138.898V142.702H107.107C107.675 142.702 108.078 143.301 107.842 143.817C105.109 149.823 99.8643 155.286 92.5528 159.87V167.061C96.5624 166.364 100.516 164.775 104.276 162.337C113.697 156.581 119.427 148.694 120.509 138.898H92.7887H92.8025Z" fill="white"/>
<path d="M50.0015 184.02C51.486 187.531 52.8734 191.113 54.1498 194.778H60.6428C60.6706 193.175 60.1295 191.391 59.0751 189.217C58.1871 187.531 57.1882 185.789 56.1199 184.02H50.0015Z" fill="white"/>
<path d="M79.7472 194.819C81.2456 193.314 82.4942 191.67 83.7845 189.371C84.7279 187.685 85.6713 185.915 86.6286 184.02H79.1784C77.8465 187.643 76.3342 191.308 74.6832 194.819H79.7472Z" fill="white"/>
<path d="M77.1528 216.447V200.31H88.8762V197.969H72.7547C72.3108 197.969 71.9501 197.606 71.9501 197.16V181.511H64.4859V197.16C64.4859 197.606 64.1252 197.969 63.6812 197.969H47.6707V200.31H58.5479C56.8136 207.375 53.026 214.593 48.3505 219.763H53.9001C55.9673 218.384 57.9235 216.544 59.6439 214.161C62.3077 210.287 64.3472 205.717 65.5542 200.909C65.6374 200.561 65.9565 200.31 66.3172 200.31H69.2863C69.7164 200.31 70.0771 200.672 70.0771 201.104V219.15H80.4825C84.2423 219.15 86.4205 218.983 89.0566 218.314V215.833C85.9627 216.363 83.7151 216.447 80.4825 216.447H77.1528Z" fill="white"/>
</svg>
